Coordinates
version=1
nRows=14
nColumns=40
inDegrees=yes

Units are S.I. units (second, meters, Newtons, ...)
Angles are in degrees.

endheader
time	pelvis_tilt	pelvis_list	pelvis_rotation	pelvis_tx	pelvis_ty	pelvis_tz	hip_flexion_r	hip_adduction_r	hip_rotation_r	knee_angle_r	knee_angle_r_beta	ankle_angle_r	subtalar_angle_r	mtp_angle_r	hip_flexion_l	hip_adduction_l	hip_rotation_l	knee_angle_l	knee_angle_l_beta	ankle_angle_l	subtalar_angle_l	mtp_angle_l	lumbar_extension	lumbar_bending	lumbar_rotation	arm_flex_r	arm_add_r	arm_rot_r	elbow_flex_r	pro_sup_r	wrist_flex_r	wrist_dev_r	arm_flex_l	arm_add_l	arm_rot_l	elbow_flex_l	pro_sup_l	wrist_flex_l	wrist_dev_l
      0.00000000	      6.74111620	     18.29114438	     82.45679351	      0.66726753	      1.00336052	     -1.04756700	    -29.79434558	      4.75032566	      2.44846890	      2.52016667	      0.04398521	     15.44699499	      0.00000000	      0.00000000	      2.18740613	     -6.85623039	     -8.08011058	      1.45320280	      0.02536317	      6.34392018	      0.00000000	      0.00000000	    -37.17782655	      4.35229871	      9.24468932	     11.46534656	    -18.64970124	      9.48952455	    136.36983277	     85.78091771	      0.00000000	      0.00000000	      3.02722377	     -4.37689202	      5.56366552	    137.50814045	     84.21778271	      0.00000000	      0.00000000
      0.01000000	      7.25939796	     17.98744887	     83.07159335	      0.66580549	      1.00091640	     -1.04605534	    -29.79000436	      5.51933780	      2.17207095	      3.18044701	      0.05550927	     15.95171860	      0.00000000	      0.00000000	      3.12420932	     -7.44566755	     -6.73333625	      0.73055690	      0.01275062	      6.59233748	      0.00000000	      0.00000000	    -37.09608097	      5.15623474	      8.93465700	     11.63336075	    -18.53329447	      9.40380925	    136.34533302	     85.80396420	      0.00000000	      0.00000000	      3.18115278	     -4.11678346	      5.50127153	    137.46508421	     84.05379068	      0.00000000	      0.00000000
      0.02000000	      7.61481162	     17.57912460	     83.71489639	      0.66436821	      0.99737812	     -1.04457130	    -29.78502697	      6.11985820	      1.71369514	      3.93932808	      0.06875425	     16.82389447	      0.00000000	      0.00000000	      4.43709481	     -7.88287487	     -5.52484401	      0.46625168	      0.00813763	      7.26775288	      0.00000000	      0.00000000	    -36.81872736	      5.78483200	      8.50506400	     11.82665184	    -18.32830231	      9.33592065	    136.29132363	     85.61857554	      0.00000000	      0.00000000	      3.31002959	     -3.95044922	      5.39664283	    137.46532222	     83.90396692	      0.00000000	      0.00000000
      0.03000000	      7.81500767	     17.34400282	     83.78797190	      0.66350997	      0.99458282	     -1.04391208	    -29.79038938	      6.25990002	      1.53567196	      4.89818859	      0.08548952	     17.47976427	      0.00000000	      0.00000000	      5.15453149	     -8.11462328	     -5.05473081	      0.44326840	      0.00773649	      7.69421169	      0.00000000	      0.00000000	    -36.63023880	      5.97196406	      8.48796710	     11.91261119	    -18.21012992	      9.25068199	    136.23899283	     85.69823913	      0.00000000	      0.00000000	      3.34855836	     -3.76542131	      5.32609292	    137.41788015	     83.86870304	      0.00000000	      0.00000000
      0.04000000	      7.80177802	     17.32512646	     83.52392253	      0.66262253	      0.99213811	     -1.04397958	    -29.80436243	      5.91467601	      1.29427111	      6.36950603	      0.11116885	     18.40452244	      0.00000000	      0.00000000	      5.38458924	     -8.08551206	     -5.07334925	      0.50880127	      0.00888026	      7.63139383	      0.00000000	      0.00000000	    -36.56534723	      5.76815215	      8.64284063	     11.85885062	    -18.03078222	      9.12093552	    136.18149842	     85.55256170	      0.00000000	      0.00000000	      3.33659787	     -3.53183449	      5.29244360	    137.32000506	     83.58774202	      0.00000000	      0.00000000
      0.05000000	      7.83650087	     17.18547287	     83.03005882	      0.66201535	      0.98950961	     -1.04471712	    -29.81912417	      5.51722344	      1.50895717	      7.64541156	      0.13343760	     19.10048469	      0.00000000	      0.00000000	      5.56588242	     -8.12501799	     -5.00396575	      0.80509153	      0.01405150	      8.09001767	      0.00000000	      0.00000000	    -36.30066004	      5.51309729	      9.03413457	     11.60057862	    -17.83918466	      8.85401997	    136.17761298	     85.77831609	      0.00000000	      0.00000000	      3.20767975	     -3.32451560	      5.28345892	    137.18354206	     84.01416586	      0.00000000	      0.00000000
      0.06000000	      7.73544300	     17.08110377	     82.51993005	      0.66143207	      0.98681923	     -1.04575532	    -29.83001033	      4.95170706	      1.49362657	      8.98548715	      0.15682634	     19.75176004	      0.00000000	      0.00000000	      5.87337486	     -8.01834829	     -5.36988183	      1.80286297	      0.03146589	      8.72126461	      0.00000000	      0.00000000	    -35.98748792	      5.11566297	      9.37209493	     11.35289041	    -17.65456412	      8.64925585	    136.14796463	     85.74744340	      0.00000000	      0.00000000	      3.06996585	     -3.16739078	      5.27431135	    137.09051640	     84.06830454	      0.00000000	      0.00000000
      0.07000000	      7.53407568	     17.16150231	     82.05981533	      0.66083703	      0.98475228	     -1.04624720	    -29.83743011	      4.28040727	      1.52307681	     10.60634613	      0.18511566	     20.33805894	      0.00000000	      0.00000000	      6.32060587	     -7.84809747	     -6.11801252	      3.78928792	      0.06613555	      8.30166559	      0.00000000	      0.00000000	    -35.95073137	      4.58601022	      9.64965697	     11.17454565	    -17.40535795	      8.48453514	    136.11664466	     85.73767245	      0.00000000	      0.00000000	      3.08110116	     -3.06929158	      5.26137548	    137.03933957	     84.10205524	      0.00000000	      0.00000000
      0.08000000	      7.29499920	     17.33382952	     81.73787916	      0.65980849	      0.98297556	     -1.04694065	    -29.83837797	      3.61183826	      1.53568883	     12.40755672	      0.21655272	     20.82708957	      0.00000000	      0.00000000	      6.80512596	     -7.60931091	     -7.03824882	      6.30712122	      0.11008003	      7.50055138	      0.00000000	      0.00000000	    -35.97638810	      4.11381959	      9.78642420	     10.99096620	    -17.10786086	      8.29618434	    136.08447930	     85.73329544	      0.00000000	      0.00000000	      3.07252667	     -3.05976551	      5.21990368	    136.98990529	     84.13095072	      0.00000000	      0.00000000
      0.09000000	      7.15007303	     17.42536016	     81.45601241	      0.65844673	      0.98092562	     -1.04827202	    -29.84035869	      3.03412243	      1.49030988	     14.11071632	      0.24627846	     21.09300828	      0.00000000	      0.00000000	      7.24964462	     -7.42740476	     -7.96573151	      8.50992801	      0.14852626	      7.02880527	      0.00000000	      0.00000000	    -35.80403935	      3.80748542	      9.88501314	     10.72706744	    -16.86420020	      8.16292693	    136.02946621	     85.73804471	      0.00000000	      0.00000000	      2.93364841	     -2.98178778	      5.15847326	    136.92794232	     84.16268312	      0.00000000	      0.00000000
      0.10000000	      6.93693025	     17.57265312	     81.10083812	      0.65680386	      0.97896608	     -1.04995169	    -29.84331635	      2.31098321	      1.63016607	     15.91015060	      0.27768451	     21.13089265	      0.00000000	      0.00000000	      7.44885077	     -7.07568821	     -8.67902993	     10.47361392	      0.18279905	      7.17843301	      0.00000000	      0.00000000	    -35.63249071	      3.42705923	     10.01238308	     10.45618428	    -16.66671160	      8.01561890	    135.97827378	     85.74130264	      0.00000000	      0.00000000	      2.80267729	     -2.91104698	      5.11749992	    136.85288452	     84.18685454	      0.00000000	      0.00000000
      0.11000000	      6.47526684	     18.05718255	     80.21741507	      0.65540991	      0.97800948	     -1.05166459	    -29.84483414	      0.99489731	      2.20265699	     18.23939284	      0.31833746	     21.44875749	      0.00000000	      0.00000000	      6.93732334	     -6.43470257	    -10.22778366	     11.84161890	      0.20667524	      7.16501675	      0.00000000	      0.00000000	    -35.79113237	      2.50412620	     10.43617699	     10.21983850	    -16.50835809	      7.94482924	    135.93167772	     85.76090432	      0.00000000	      0.00000000	      2.63233335	     -2.79769979	      5.04572055	    136.80198476	     84.25026903	      0.00000000	      0.00000000
      0.12000000	      6.13261714	     18.45017902	     80.03486305	      0.65357536	      0.97723551	     -1.05293061	    -29.84388378	      0.24783974	      2.46312492	     20.36017362	      0.35535207	     21.02107056	      0.00000000	      0.00000000	      6.85954113	     -5.88860704	    -10.56496893	     13.51483355	      0.23587834	      6.75157568	      0.00000000	      0.00000000	    -35.91408341	      2.00992145	     10.36077689	     10.04755406	    -16.21097344	      7.81702496	    135.89078836	     85.74776703	      0.00000000	      0.00000000	      2.66383222	     -2.85920161	      4.98925255	    136.70732646	     84.24271519	      0.00000000	      0.00000000
      0.13000000	      5.30558419	     19.36639959	     78.80526699	      0.65283303	      0.97760268	     -1.05482907	    -29.84296693	     -1.74662467	      2.95343802	     23.21167294	      0.40512012	     20.16119788	      0.00000000	      0.00000000	      5.61655431	     -4.82103061	    -12.16423628	     14.59717980	      0.25476885	      6.36770749	      0.00000000	      0.00000000	    -36.40901211	      0.41824093	     10.86450142	      9.82720345	    -16.02932875	      7.83270781	    135.88097328	     85.72043563	      0.00000000	      0.00000000	      2.51250442	     -2.84289392	      4.88886514	    136.72635220	     84.20517682	      0.00000000	      0.00000000
